<svg width="512" height="512" viewBox="0 0 512 512" fill="none" xmlns="http://www.w3.org/2000/svg" role="img" aria-label="VyaparAI">
  <rect x="24" y="24" width="464" height="464" rx="120" fill="#4F46E5"/>
  <path d="M132 158 L256 326 L380 158 L330 158 L256 270 L182 158 Z" fill="#FFFFFF"/>
  <rect x="214" y="318" width="20" height="58" rx="10" fill="#C7D2FE"/>
  <rect x="246" y="300" width="20" height="76" rx="10" fill="#FFFFFF"/>
  <rect x="278" y="284" width="20" height="92" rx="10" fill="#C7D2FE"/>
  <path d="M392 132 c11 0 20 9 20 20 0 8 -4 14 -11 18 8 4 13 12 13 21 0 13 -11 24 -24 24 -9 0 -17 -5 -21 -12 -6 7 -14 11 -23 11 -15 0 -28 -12 -28 -28 0 -11 7 -21 17 -25 -3 -8 -3 -18 2 -25 6 -10 16 -15 28 -14 11 1 20 9 24 18 6 -5 12 -7 19 -5 Z" fill="#FFFFFF" opacity="0.92"/>
</svg>
